<svg xmlns="http://www.w3.org/2000/svg" viewBox="0 0 100 100">
  <defs>
    <linearGradient id="sunGradient" x1="0%" y1="0%" x2="100%" y2="100%">
      <stop offset="0%" style="stop-color:#f59e0b">
        <animate attributeName="stop-color"
          values="#f59e0b;#f97316;#f59e0b"
          dur="3s" repeatCount="indefinite"/>
      </stop>
      <stop offset="100%" style="stop-color:#ef4444">
        <animate attributeName="stop-color"
          values="#ef4444;#f97316;#ef4444"
          dur="3s" repeatCount="indefinite"/>
      </stop>
    </linearGradient>
  </defs>

  <!-- Sol central -->
  <circle cx="50" cy="50" r="25" fill="url(#sunGradient)">
    <animate attributeName="r"
      values="23;25;23"
      dur="2s"
      repeatCount="indefinite"/>
  </circle>

  <!-- Rayos del sol (versión estática) -->
  <g class="ray">
    <path d="M50 15 L55 25 L45 25 Z" fill="url(#sunGradient)" transform="rotate(0 50 50)">
      <animate attributeName="d" values="M50 15 L55 25 L45 25 Z;M50 12 L56 25 L44 25 Z;M50 15 L55 25 L45 25 Z" dur="2s" repeatCount="indefinite"/>
    </path>
    <path d="M50 15 L55 25 L45 25 Z" fill="url(#sunGradient)" transform="rotate(45 50 50)">
      <animate attributeName="d" values="M50 15 L55 25 L45 25 Z;M50 12 L56 25 L44 25 Z;M50 15 L55 25 L45 25 Z" dur="2s" repeatCount="indefinite"/>
    </path>
    <path d="M50 15 L55 25 L45 25 Z" fill="url(#sunGradient)" transform="rotate(90 50 50)">
      <animate attributeName="d" values="M50 15 L55 25 L45 25 Z;M50 12 L56 25 L44 25 Z;M50 15 L55 25 L45 25 Z" dur="2s" repeatCount="indefinite"/>
    </path>
    <path d="M50 15 L55 25 L45 25 Z" fill="url(#sunGradient)" transform="rotate(135 50 50)">
      <animate attributeName="d" values="M50 15 L55 25 L45 25 Z;M50 12 L56 25 L44 25 Z;M50 15 L55 25 L45 25 Z" dur="2s" repeatCount="indefinite"/>
    </path>
    <path d="M50 15 L55 25 L45 25 Z" fill="url(#sunGradient)" transform="rotate(180 50 50)">
      <animate attributeName="d" values="M50 15 L55 25 L45 25 Z;M50 12 L56 25 L44 25 Z;M50 15 L55 25 L45 25 Z" dur="2s" repeatCount="indefinite"/>
    </path>
    <path d="M50 15 L55 25 L45 25 Z" fill="url(#sunGradient)" transform="rotate(225 50 50)">
      <animate attributeName="d" values="M50 15 L55 25 L45 25 Z;M50 12 L56 25 L44 25 Z;M50 15 L55 25 L45 25 Z" dur="2s" repeatCount="indefinite"/>
    </path>
    <path d="M50 15 L55 25 L45 25 Z" fill="url(#sunGradient)" transform="rotate(270 50 50)">
      <animate attributeName="d" values="M50 15 L55 25 L45 25 Z;M50 12 L56 25 L44 25 Z;M50 15 L55 25 L45 25 Z" dur="2s" repeatCount="indefinite"/>
    </path>
    <path d="M50 15 L55 25 L45 25 Z" fill="url(#sunGradient)" transform="rotate(315 50 50)">
      <animate attributeName="d" values="M50 15 L55 25 L45 25 Z;M50 12 L56 25 L44 25 Z;M50 15 L55 25 L45 25 Z" dur="2s" repeatCount="indefinite"/>
    </path>
    <animateTransform
      attributeName="transform"
      type="rotate"
      from="0 50 50"
      to="360 50 50"
      dur="15s"
      repeatCount="indefinite"
    />
  </g>

  <!-- Ondas de agua -->
  <path d="M30 75 Q40 70 50 75 Q60 80 70 75"
    fill="none"
    stroke="#60a5fa"
    stroke-width="3"
    opacity="0.6">
    <animate attributeName="d"
      values="M30 75 Q40 70 50 75 Q60 80 70 75;M30 75 Q40 80 50 75 Q60 70 70 75;M30 75 Q40 70 50 75 Q60 80 70 75"
      dur="3s"
      repeatCount="indefinite"/>
  </path>

  <style>
    @media (prefers-color-scheme: dark) {
      :root {
        color-scheme: dark;
      }
    }
  </style>
</svg>
